HIERARCHY
ROOT hip
{
  OFFSET 0 0 0
  CHANNELS 6 Xposition Yposition Zposition Zrotation Yrotation Xrotation
  JOINT abdomen
  {
    OFFSET 0 20.6881 -0.73152
    CHANNELS 3 Zrotation Xrotation Yrotation
    JOINT chest
    {
      OFFSET 0 11.7043 -0.48768
      CHANNELS 3 Zrotation Xrotation Yrotation
      JOINT neck
      {
        OFFSET 0 22.1894 -2.19456
        CHANNELS 3 Zrotation Xrotation Yrotation
        JOINT head
        {
          OFFSET -0.24384 7.07133 1.2192
          CHANNELS 3 Zrotation Xrotation Yrotation
          JOINT leftEye
          {
            OFFSET 4.14528 8.04674 8.04672
            CHANNELS 3 Zrotation Xrotation Yrotation
            End Site
            {
              OFFSET 1 0 0
            }
          }
          JOINT rightEye
          {
            OFFSET -3.6576 8.04674 8.04672
            CHANNELS 3 Zrotation Xrotation Yrotation
            End Site
            {
              OFFSET 1 0 0
            }
          }
        }
      }
      JOINT rCollar
      {
        OFFSET -2.68224 19.2634 -4.8768
        CHANNELS 3 Zrotation Xrotation Yrotation
        JOINT rShldr
        {
          OFFSET -8.77824 -1.95073 1.46304
          CHANNELS 3 Zrotation Xrotation Yrotation
          JOINT rForeArm
          {
            OFFSET -28.1742 -1.7115 0.48768
            CHANNELS 3 Zrotation Xrotation Yrotation
            JOINT rHand
            {
              OFFSET -22.5879 0.773209 7.07136
              CHANNELS 3 Zrotation Xrotation Yrotation
              JOINT rThumb1
              {
                OFFSET -1.2192 -0.487915 3.41376
                CHANNELS 3 Zrotation Xrotation Yrotation
                JOINT rThumb2
                {
                  OFFSET -3.37035 -0.52449 3.41376
                  CHANNELS 3 Zrotation Xrotation Yrotation
                  End Site
                  {
                    OFFSET -1.78271 -1.18214 1.43049
                  }
                }
              }
              JOINT rIndex1
              {
                OFFSET -7.75947 0.938293 5.60832
                CHANNELS 3 Zrotation Xrotation Yrotation
                JOINT rIndex2
                {
                  OFFSET -2.54057 -0.884171 1.56538
                  CHANNELS 3 Zrotation Xrotation Yrotation
                  End Site
                  {
                    OFFSET -1.62519 -0.234802 1.16502
                  }
                }
              }
              JOINT rMid1
              {
                OFFSET -8.24714 1.18213 3.41376
                CHANNELS 3 Zrotation Xrotation Yrotation
                JOINT rMid2
                {
                  OFFSET -3.10165 -0.590103 1.0647
                  CHANNELS 3 Zrotation Xrotation Yrotation
                  End Site
                  {
                    OFFSET -2.48547 -0.328903 0.83742
                  }
                }
              }
              JOINT rRing1
              {
                OFFSET -8.82822 0.546677 1.51678
                CHANNELS 3 Zrotation Xrotation Yrotation
                JOINT rRing2
                {
                  OFFSET -2.60934 -0.819778 -0.0198488
                  CHANNELS 3 Zrotation Xrotation Yrotation
                  End Site
                  {
                    OFFSET -2.33842 -0.294052 0.168128
                  }
                }
              }
              JOINT rPinky1
              {
                OFFSET -8.27202 -0.0477905 -0.4584
                CHANNELS 3 Zrotation Xrotation Yrotation
                JOINT rPinky2
                {
                  OFFSET -1.82734 -0.647385 -0.700984
                  CHANNELS 3 Zrotation Xrotation Yrotation
                  End Site
                  {
                    OFFSET -1.69225 -0.51767 -0.607171
                  }
                }
              }
            }
          }
        }
      }
      JOINT lCollar
      {
        OFFSET 2.68224 19.2634 -4.8768
        CHANNELS 3 Zrotation Xrotation Yrotation
        JOINT lShldr
        {
          OFFSET 8.77824 -1.95073 1.46304
          CHANNELS 3 Zrotation Xrotation Yrotation
          JOINT lForeArm
          {
            OFFSET 28.1742 -1.7115 0.48768
            CHANNELS 3 Zrotation Xrotation Yrotation
            JOINT lHand
            {
              OFFSET 22.5879 0.773209 7.07136
              CHANNELS 3 Zrotation Xrotation Yrotation
              JOINT lThumb1
              {
                OFFSET 1.2192 -0.487915 3.41376
                CHANNELS 3 Zrotation Xrotation Yrotation
                JOINT lThumb2
                {
                  OFFSET 3.37035 -0.52449 3.41376
                  CHANNELS 3 Zrotation Xrotation Yrotation
                  End Site
                  {
                    OFFSET 1.78271 -1.18214 1.43049
                  }
                }
              }
              JOINT lIndex1
              {
                OFFSET 7.75947 0.938293 5.60832
                CHANNELS 3 Zrotation Xrotation Yrotation
                JOINT lIndex2
                {
                  OFFSET 2.54057 -0.884171 1.56538
                  CHANNELS 3 Zrotation Xrotation Yrotation
                  End Site
                  {
                    OFFSET 1.62519 -0.234802 1.16502
                  }
                }
              }
              JOINT lMid1
              {
                OFFSET 8.24714 1.18213 3.41376
                CHANNELS 3 Zrotation Xrotation Yrotation
                JOINT lMid2
                {
                  OFFSET 3.10165 -0.590103 1.0647
                  CHANNELS 3 Zrotation Xrotation Yrotation
                  End Site
                  {
                    OFFSET 2.48547 -0.328903 0.83742
                  }
                }
              }
              JOINT lRing1
              {
                OFFSET 8.82822 0.546677 1.51678
                CHANNELS 3 Zrotation Xrotation Yrotation
                JOINT lRing2
                {
                  OFFSET 2.60934 -0.819778 -0.0198488
                  CHANNELS 3 Zrotation Xrotation Yrotation
                  End Site
                  {
                    OFFSET 2.33842 -0.294052 0.168128
                  }
                }
              }
              JOINT lPinky1
              {
                OFFSET 8.27202 -0.0477905 -0.4584
                CHANNELS 3 Zrotation Xrotation Yrotation
                JOINT lPinky2
                {
                  OFFSET 1.82734 -0.647385 -0.700984
                  CHANNELS 3 Zrotation Xrotation Yrotation
                  End Site
                  {
                    OFFSET 1.69225 -0.51767 -0.607171
                  }
                }
              }
            }
          }
        }
      }
    }
  }
  JOINT rButtock
  {
    OFFSET -8.77824 4.35084 1.2192
    CHANNELS 3 Zrotation Xrotation Yrotation
    JOINT rThigh
    {
      OFFSET 0 -1.70687 -2.19456
      CHANNELS 3 Zrotation Xrotation Yrotation
      JOINT rShin
      {
        OFFSET 0 -36.8199 0.73152
        CHANNELS 3 Zrotation Xrotation Yrotation
        JOINT rFoot
        {
          OFFSET 0.73152 -45.1104 -5.12064
          CHANNELS 3 Zrotation Xrotation Yrotation
          End Site
          {
            OFFSET -1.1221 -3.69964 12.103
          }
        }
      }
    }
  }
  JOINT lButtock
  {
    OFFSET 8.77824 4.35084 1.2192
    CHANNELS 3 Zrotation Xrotation Yrotation
    JOINT lThigh
    {
      OFFSET 0 -1.70687 -2.19456
      CHANNELS 3 Zrotation Xrotation Yrotation
      JOINT lShin
      {
        OFFSET 0 -36.8199 0.73152
        CHANNELS 3 Zrotation Xrotation Yrotation
        JOINT lFoot
        {
          OFFSET -0.73152 -45.1104 -5.12064
          CHANNELS 3 Zrotation Xrotation Yrotation
          End Site
          {
            OFFSET 1.1221 -3.69964 12.103
          }
        }
      }
    }
  }
}
MOTION
Frames:	8
Frame Time:	0.03333
0.0 0.0 0.0 0.0 0.0 0.0 0.0 0.0 0.0 0.0 0.0 0.0 0.0 0.0 0.0 0.0 0.0 0.0 0.0 0.0 0.0 0.0 0.0 0.0 0.0 0.0 0.0 0.0 0.0 0.0 0.0 0.0 0.0 0.0 0.0 0.0 0.0 0.0 0.0 0.0 0.0 0.0 0.0 0.0 0.0 0.0 0.0 0.0 0.0 0.0 0.0 0.0 0.0 0.0 0.0 0.0 0.0 0.0 0.0 0.0 0.0 0.0 0.0 0.0 0.0 0.0 0.0 0.0 0.0 0.0 0.0 0.0 0.0 0.0 0.0 0.0 0.0 0.0 0.0 0.0 0.0 0.0 0.0 0.0 0.0 0.0 0.0 0.0 0.0 0.0 0.0 0.0 0.0 0.0 0.0 0.0 0.0 0.0 0.0 0.0 0.0 0.0 0.0 0.0 0.0 0.0 0.0 0.0 0.0 0.0 0.0 0.0 0.0 0.0 0.0 0.0 0.0 0.0 0.0 0.0 0.0 0.0 0.0 0.0 0.0 0.0 0.0 0.0 0.0 0.0 0.0 0.0
9.392100000000001 57.8883 -0.0372 2.722636 -78.703826 3.924881 -0.200944 14.817671 -165.990348 2.309183 7.626522 171.117967 -14.361109 24.917184 -71.710436 44.087138 -4.563167 45.608954 -0.002853 -0.0 0.000809 -0.002853 -0.0 0.000809 -6.251192 26.21921 7.467949 -106.870704 4.328707 73.4557 7.352657 25.702069 -133.917324 -162.979747 15.05949 138.072881 5.434314 -5.422123 -0.582323 -134.228968 -32.219857 119.470268 -46.20854 39.653284 36.317786 5.901757 1.277652 -2.360032 -0.969822 2.779565 0.552814 -170.265246 -26.253626 144.302024 -145.120292 0.310328 -179.225256 -154.517056 71.628778 169.715731 -109.122871 -42.334408 -107.214507 -146.303559 10.96681 -142.164539 9.651889 34.836212 -11.19896 -81.417264 8.33014 -71.580734 -112.712667 -30.957794 -32.38978 168.381766 34.05123 -139.330404 -71.831415 -48.263816 -25.791267 10.321776 -56.75164 37.437064 166.821337 -43.973737 -122.062387 178.295632 -47.300266 -112.803232 -68.985153 -80.15357 -40.578875 -167.494926 -64.006739 -132.856583 145.110609 -0.627137 178.931154 79.313934 87.681418 -92.686594 150.574763 31.033198 146.366804 -2.092944 0.350029 1.820559 179.996468 75.750947 0.003644 161.269206 17.995222 31.194698 84.360036 42.646588 174.387396 154.283951 18.281713 -52.682275 -179.974942 75.747913 -0.020617 -177.821791 20.3229 -18.648555 -141.440688 73.371536 -151.148839 100.64188 -64.76497 -2.075277
13.4513 58.0437 0.1847 3.180931 -72.55888 3.480668 0.221692 18.213409 1.364884 0.42334 -12.182901 1.000008 -11.724587 32.636442 -120.550172 43.419086 27.820091 80.077548 0.001853 -0.0 -0.00047 0.001853 -0.0 -0.00047 0.070323 -0.427936 -0.094129 70.838908 1.480819 86.54598 -164.542838 -31.001175 66.55367 -167.5858 1.383069 142.196522 4.473164 -4.455943 -0.515828 -128.59719 -21.404189 115.319292 88.792291 -75.498904 40.049907 29.454922 -22.610367 -6.734502 -125.643522 49.839841 115.274112 -170.238954 -26.3009 144.001508 0.00012 0.064016 0.018913 -55.591161 -86.723512 -77.103315 -150.578048 31.032936 -146.365924 10.970261 26.307229 4.103113 129.707224 55.102865 -133.554218 -2.680954 -65.47563 -85.321065 -12.367371 -21.263046 -59.789906 11.171331 26.275962 -1.147769 68.482602 37.954132 -35.659285 -23.539622 -24.455787 -17.627597 -12.089801 -21.546531 5.087282 -179.819372 -39.75787 -104.837489 36.037665 51.722505 -29.833016 171.96404 -31.376944 -143.990745 0.015174 -1.323482 0.413714 156.224801 -46.649165 -177.618442 120.156313 -34.041828 118.039333 -3.225174 0.102738 1.516948 179.999972 75.749758 1.9e-05 156.797287 15.749608 57.657198 85.537054 2.816917 34.993971 85.173063 41.809474 -179.361065 0.001475 0.000899 0.000369 8.777613 -43.455539 106.83427 113.049398 -12.726526 79.439677 -114.826983 -23.737385 163.920484
16.9996 57.995 0.6178 3.431605 -66.865263 2.752111 0.460618 17.03955 2.487846 1.14636 -12.046564 -3.257086 -10.863018 33.662458 -128.38965 39.556404 32.381663 86.352666 -0.002434 0.0 -0.004834 -0.001931 -0.0 0.000816 -82.106403 68.325862 85.221362 -72.119965 11.864702 5.346924 13.870929 36.794359 -122.555921 -155.059607 24.5242 133.225025 -98.858624 37.196643 57.120427 -178.442774 -38.699678 76.811234 159.641183 -69.973157 102.397 85.871461 -66.736379 29.837798 -159.366041 -2.685456 142.597077 -42.487229 58.27499 36.60048 -70.381556 -72.129695 -87.280256 14.01556 27.612461 -0.81761 17.002816 59.584558 12.710632 -161.22029 55.502616 -149.087294 155.41751 -2.951526 -161.718207 24.839859 51.159795 59.224812 -16.767455 14.955496 91.54481 -168.991604 -16.395907 -144.351844 12.305427 11.514936 -3.095106 13.216045 11.804677 -17.817128 13.870577 18.815013 -9.291401 -5.600277 5.240858 -0.155946 0.057545 0.167756 -0.033566 3.220847 17.370291 -3.296406 0.001103 0.036345 -0.011518 154.319664 11.948763 -170.226198 126.796269 -26.618809 124.51211 -1.922486 -2.837802 2.587886 -179.893602 75.75002 -0.082006 154.62165 13.66952 -86.075448 -75.127013 32.963623 148.468902 -160.809933 63.953658 83.99584 -0.059523 9.1e-05 -0.044643 17.66674 -28.259494 -0.0 -109.532533 81.330481 85.502551 95.428271 32.438474 -13.252984
20.0782 57.9565 1.3346 3.527647 -61.358098 2.460495 -0.25138 14.986603 0.054888 2.785249 -12.319905 -3.188777 7.202125 25.750289 93.73288 -37.92568 14.47524 -122.555766 -0.000176 -0.0 7.7e-05 -0.000207 -0.0 0.00077 -40.033001 -86.056559 -61.564221 19.282357 -81.731152 -61.218992 75.534756 -31.734904 -92.054855 -106.384814 57.119432 84.974444 -169.571424 -7.254229 89.929184 168.760625 -26.367073 96.41032 5.741749 -9.851159 -2.890147 18.752758 -8.661076 -1.563118 6.909612 -21.623883 -2.809711 -0.443309 10.155062 1.663289 0.006062 1.853389 0.582498 -156.265477 -13.739335 173.483124 9.96441 32.462251 8.625811 -23.395219 -40.011592 -23.604147 -0.02346 -0.138482 0.032072 83.957723 -25.561434 -145.672232 72.021654 8.046524 39.651235 -36.223282 -54.215679 -26.783159 93.743485 37.963426 -53.548602 129.940898 -18.792704 -76.716642 129.576455 16.761404 -108.786221 160.341827 -6.326168 -117.804587 164.636967 -19.284044 -144.732531 -11.493593 -24.904832 1.142826 -0.005896 1.771144 -0.558041 -9.08893 12.71416 -1.661122 -0.551176 1.455511 -0.50917 24.269461 -41.349318 24.924412 -0.000307 -0.000477 0.000394 -49.692247 -50.18988 -135.777629 -79.095538 20.522838 5.552108 56.043372 25.636868 22.321906 -179.985938 75.750119 -0.01157 -141.803499 48.956719 -163.088399 -92.413004 -36.564228 -174.637114 -89.016942 54.406607 -5.77424
23.5373 58.09140000000001 2.2554000000000003 4.095327 -55.643566 2.157945 -3.124387 12.782271 13.85898 1.740151 -13.629107 -18.059944 -15.433287 24.916525 -65.2572 35.673773 -4.266322 32.970323 0.003529 0.0 0.00036 0.00358 -0.0 -0.000176 -82.106282 68.325262 85.221456 49.847707 -67.711134 89.465207 158.552304 52.152529 48.084593 -168.835961 18.142581 139.284613 -103.199838 36.330767 60.110957 -135.802336 -18.926514 75.313548 -19.170949 24.114497 13.380694 -115.632376 39.131668 88.460441 -8.415945 20.880508 5.645447 -7.241723 26.205562 6.046139 -145.123814 1.973741 -179.748266 10.048686 -0.198348 -9.019525 1.29961 3.491302 1.19313 -22.817527 -40.172955 -23.477422 -3.269497 -26.755774 5.241663 80.796946 -12.667143 176.167453 -126.302502 -66.526876 149.374167 15.643499 31.281517 -2.612043 -51.060092 -41.203679 -12.85694 148.27103 -25.197854 -127.110436 -159.642788 -69.973491 -102.398652 51.194526 54.62114 -40.846759 -2.100108 -6.305404 1.081666 170.11513 -25.708551 -144.310812 145.121102 0.309399 179.227141 148.146049 -43.033595 170.609584 130.183867 -21.840774 127.786507 154.919737 37.192826 146.29207 -179.975758 75.749712 -0.019946 144.174127 11.914913 7.681919 71.938301 51.529995 26.709411 91.159076 61.689506 -173.703223 0.0 0.0008 -0.000379 27.382063 -8.454658 74.15284 65.957996 24.107852 -73.142375 74.306913 4.542616 -10.447008
28.229300000000002 58.3481 2.7329 6.450753 -50.175529 0.61831 -4.707002 7.72761 -148.519045 0.747073 10.074814 142.126078 -11.103161 17.111536 -15.041471 12.408682 -24.220576 -19.73556 -0.001952 0.0 -0.00225 -0.001404 -0.0 0.003439 -155.537877 -3.733446 161.884543 -103.646089 -67.169517 -80.889288 -134.780718 -4.641519 -35.233 13.987802 -29.214983 7.457826 -93.743849 37.963666 53.548374 -82.545547 -3.772573 59.574396 -134.540211 10.541689 112.295609 -16.408904 36.638484 4.804981 -160.097524 -4.901068 142.969638 86.521513 -77.970671 57.788273 -0.015215 -1.323298 -0.414913 -49.651878 77.901913 63.016409 -1.169349 -2.962641 -1.083847 36.658278 80.99208 -0.06467 -3.284241 -26.942065 5.275566 -123.779812 71.860956 42.904324 90.734517 -25.80704 -62.323338 -177.076032 -67.172687 -153.408178 -11.509554 -11.486938 0.623136 -17.682462 -44.036603 23.150549 90.224896 41.07306 -75.797195 10.394854 24.276815 -1.824503 -68.984099 -80.15397 -40.579228 -2.613135 1.2031 -0.325783 0.000456 -0.018459 0.006448 -8.308615 20.627877 -2.930901 20.143505 -33.376635 19.313896 166.129997 71.091998 147.998376 179.919393 75.749854 0.062128 141.187598 8.898512 6.194832 50.752255 67.454582 -120.888857 -135.503177 -50.550576 -7.121175 179.993946 75.749865 0.004142 -120.715228 57.808689 -0.0 41.74041 46.077898 -135.614755 54.500291 88.080375 23.348659
33.189600000000006 58.4277 2.5905 10.109895 -46.539145 -0.685043 -7.202144 8.71215 -102.030305 9.507752 6.634892 92.113428 4.499957 27.438273 106.481041 -34.420184 21.869191 -139.897263 0.002829 0.0 0.00267 0.00214 -0.0 -0.003005 -9.652334 34.83605 11.199632 -111.068021 13.964052 124.616997 -172.960119 25.24202 -75.747962 -8.268738 37.448863 3.021348 -99.394953 37.101953 57.492042 -80.941113 -3.913641 56.967212 -145.337611 -6.265088 118.677088 -62.921446 57.119143 45.734275 -160.098217 -4.901344 142.968207 -163.615479 -5.779209 143.065344 0.004497 0.917221 0.290273 -23.445441 72.954979 36.400326 -25.13552 -37.772551 -24.205041 16.135986 43.852708 8.309047 159.220563 -48.724944 -170.567982 60.351825 -15.970499 38.911687 -0.745992 25.001529 137.506751 140.576088 31.534884 -126.464223 5.762661 5.575594 -1.158659 127.613115 -24.886117 -111.656434 -73.420538 -73.570931 -26.564009 -15.422275 2.35437 5.484695 169.090266 -33.247309 -145.374786 172.389578 -31.345259 -143.679618 0.016422 -1.323191 0.415579 156.246692 -46.142522 -177.536317 1.151743 -2.9141 1.065142 -18.112389 54.107525 -9.499704 -179.994113 75.750479 -0.006074 143.353362 2.244647 -93.013732 -82.635635 10.58647 -130.771213 -154.408817 21.417368 175.243309 0.000285 0.001548 -0.000366 23.352068 -3.684195 90.488171 46.225068 19.848772 -136.081312 134.034165 -68.997775 -132.047436
